<svg width="27" height="27" viewBox="0 0 27 27" fill="none" xmlns="http://www.w3.org/2000/svg">
<path fill-rule="evenodd" clip-rule="evenodd" d="M26.2716 7.77758C26.1718 5.6704 25.6905 3.80388 24.1468 2.26606C22.609 0.72823 20.7425 0.246926 18.6353 0.141274C16.4636 0.0180128 9.9542 0.0180128 7.78246 0.141274C5.68115 0.241057 3.81463 0.722361 2.27094 2.26019C0.727243 3.79801 0.251809 5.66454 0.146157 7.77171C0.0228956 9.94345 0.0228956 16.4528 0.146157 18.6245C0.24594 20.7317 0.727243 22.5982 2.27094 24.136C3.81463 25.6739 5.67528 26.1552 7.78246 26.2608C9.9542 26.3841 16.4636 26.3841 18.6353 26.2608C20.7425 26.161 22.609 25.6797 24.1468 24.136C25.6846 22.5982 26.1659 20.7317 26.2716 18.6245C26.3949 16.4528 26.3949 9.94932 26.2716 7.77758ZM20.2318 7.7541C21.1005 7.7541 21.8049 7.05562 21.8049 6.18106C21.8049 5.31236 21.1005 4.60801 20.2318 4.60801C19.3631 4.60801 18.6588 5.31236 18.6588 6.18106C18.6588 7.04975 19.3573 7.7541 20.2318 7.7541ZM13.2118 6.45693C9.47876 6.45693 6.46768 9.46801 6.46768 13.201C6.46768 16.9341 9.47876 19.9452 13.2118 19.9452C16.9449 19.9452 19.9559 16.9341 19.9559 13.201C19.9559 9.46801 16.9449 6.45693 13.2118 6.45693ZM13.2118 17.5856C10.7994 17.5856 8.82724 15.6193 8.82724 13.201C8.82724 10.7828 10.7935 8.81649 13.2118 8.81649C15.6301 8.81649 17.5964 10.7828 17.5964 13.201C17.5964 15.6193 15.6242 17.5856 13.2118 17.5856ZM20.9655 23.4552C22.1218 22.9915 23.0081 22.1052 23.466 20.9547C24.055 19.4747 24.0222 16.237 24.0009 14.1382C23.9974 13.7901 23.9942 13.4733 23.9942 13.201C23.9942 12.9288 23.9974 12.612 24.0009 12.264C24.0222 10.1664 24.0549 6.93248 23.466 5.44736C23.0023 4.29106 22.1159 3.40475 20.9655 2.94693C19.4807 2.3611 16.2274 2.3923 14.1292 2.41243C13.7889 2.4157 13.4789 2.41867 13.2118 2.41867C12.9395 2.41867 12.6227 2.41546 12.2747 2.41193C10.1771 2.39068 6.94324 2.35792 5.45811 2.94693C4.30181 3.41062 3.4155 4.29693 2.95768 5.44736C2.37185 6.93214 2.40305 10.1855 2.42318 12.2836C2.42644 12.624 2.42941 12.934 2.42941 13.201C2.42941 13.4734 2.42621 13.7901 2.42268 14.1382C2.40143 16.2357 2.36866 19.4696 2.95768 20.9547C3.42137 22.111 4.30768 22.9974 5.45811 23.4552C6.9429 24.0411 10.1962 24.0099 12.2944 23.9897C12.6347 23.9864 12.9448 23.9834 13.2118 23.9834C13.484 23.9834 13.8009 23.9866 14.1488 23.9901C16.2465 24.0115 19.4804 24.0442 20.9655 23.4552Z" fill="black" fill-opacity="0.6"/>
</svg>
