<svg width="27" height="22" viewBox="0 0 27 22" fill="none" xmlns="http://www.w3.org/2000/svg">
<g clip-path="url(#clip0)">
<path d="M23.8519 5.3849C23.8688 5.62105 23.8688 5.85725 23.8688 6.09339C23.8688 13.2962 18.3866 21.5954 8.36673 21.5954C5.2798 21.5954 2.41219 20.7014 0 19.1496C0.438594 19.2001 0.860261 19.2169 1.31573 19.2169C3.86282 19.2169 6.20756 18.3567 8.07996 16.8891C5.68464 16.8386 3.6773 15.2698 2.98568 13.1107C3.32308 13.1613 3.66042 13.195 4.01469 13.195C4.50386 13.195 4.99308 13.1275 5.4485 13.0094C2.95198 12.5034 1.07953 10.3105 1.07953 7.66214V7.5947C1.80485 7.99954 2.64834 8.25256 3.5423 8.28626C2.07474 7.30787 1.11328 5.63792 1.11328 3.74865C1.11328 2.73657 1.38313 1.8088 1.85547 0.999115C4.53756 4.30532 8.56913 6.46443 13.0898 6.70063C13.0055 6.29579 12.9548 5.87412 12.9548 5.4524C12.9548 2.44979 15.3839 0.00390625 18.4034 0.00390625C19.9721 0.00390625 21.389 0.661771 22.3843 1.72448C23.6157 1.48833 24.7964 1.03287 25.8423 0.40875C25.4374 1.67391 24.5772 2.73662 23.447 3.41131C24.5434 3.29328 25.6062 2.98959 26.5845 2.56792C25.8424 3.64745 24.9146 4.60891 23.8519 5.3849Z" fill="black" fill-opacity="0.6"/>
</g>
<defs>
<clipPath id="clip0">
<rect width="27" height="21.8077" fill="white"/>
</clipPath>
</defs>
</svg>
